<mxfile host="app.diagrams.net" agent="Mozilla/5.0 (Windows NT 10.0; Win64; x64) AppleWebKit/537.36 (KHTML, like Gecko) Chrome/131.0.0.0 Safari/537.36" version="25.0.3">
  <diagram name="Страница-1" id="DR4e1Xe_G9O5jGivqOh5">
    <mxGraphModel dx="1687" dy="918" grid="1" gridSize="10" guides="1" tooltips="1" connect="1" arrows="1" fold="1" page="1" pageScale="1" pageWidth="1169" pageHeight="827" math="0" shadow="0">
      <root>
        <mxCell id="0" />
        <mxCell id="1" parent="0" />
        <mxCell id="pT4zph-oLTL89DF1EZWl-4" value="&lt;b style=&quot;&quot;&gt;&lt;font style=&quot;font-size: 15px;&quot;&gt;User (you)&lt;/font&gt;&lt;/b&gt;" style="rounded=0;whiteSpace=wrap;html=1;fillColor=#d5e8d4;strokeColor=#82b366;" parent="1" vertex="1">
          <mxGeometry x="320" y="328" width="120" height="60" as="geometry" />
        </mxCell>
        <mxCell id="pT4zph-oLTL89DF1EZWl-5" value="Address" style="shape=ext;margin=3;double=1;whiteSpace=wrap;html=1;align=center;fontSize=15;fillColor=#d5e8d4;strokeColor=#82b366;" parent="1" vertex="1">
          <mxGeometry x="330" y="90" width="100" height="40" as="geometry" />
        </mxCell>
        <mxCell id="pT4zph-oLTL89DF1EZWl-6" value="&lt;span style=&quot;border-bottom: 1px dotted&quot;&gt;Country&lt;/span&gt;" style="ellipse;whiteSpace=wrap;html=1;align=center;strokeColor=#6c8ebf;fontSize=14;fillColor=#dae8fc;" parent="1" vertex="1">
          <mxGeometry x="620" y="30" width="100" height="40" as="geometry" />
        </mxCell>
        <mxCell id="pT4zph-oLTL89DF1EZWl-7" value="&lt;span style=&quot;border-bottom: 1px dotted&quot;&gt;City&lt;br&gt;&lt;/span&gt;" style="ellipse;whiteSpace=wrap;html=1;align=center;strokeColor=#6c8ebf;fontSize=14;fillColor=#dae8fc;" parent="1" vertex="1">
          <mxGeometry x="620" y="110" width="100" height="40" as="geometry" />
        </mxCell>
        <mxCell id="pT4zph-oLTL89DF1EZWl-8" value="&lt;span style=&quot;border-bottom: 1px dotted&quot;&gt;Street&lt;br&gt;&lt;/span&gt;" style="ellipse;whiteSpace=wrap;html=1;align=center;strokeColor=#6c8ebf;fontSize=14;fillColor=#dae8fc;" parent="1" vertex="1">
          <mxGeometry x="620" y="150" width="100" height="40" as="geometry" />
        </mxCell>
        <mxCell id="pT4zph-oLTL89DF1EZWl-9" value="" style="endArrow=classic;html=1;rounded=0;fontSize=13;exitX=0;exitY=0.5;exitDx=0;exitDy=0;entryX=1;entryY=0;entryDx=0;entryDy=0;fillColor=#dae8fc;strokeColor=#000000;" parent="1" source="pT4zph-oLTL89DF1EZWl-6" target="pT4zph-oLTL89DF1EZWl-5" edge="1">
          <mxGeometry width="50" height="50" relative="1" as="geometry">
            <mxPoint x="380" y="310" as="sourcePoint" />
            <mxPoint x="430" y="150" as="targetPoint" />
          </mxGeometry>
        </mxCell>
        <mxCell id="pT4zph-oLTL89DF1EZWl-10" value="" style="endArrow=classic;html=1;rounded=0;fontSize=13;exitX=0;exitY=0.5;exitDx=0;exitDy=0;fillColor=#dae8fc;strokeColor=#000000;entryX=0.98;entryY=0.665;entryDx=0;entryDy=0;entryPerimeter=0;" parent="1" source="pT4zph-oLTL89DF1EZWl-7" target="pT4zph-oLTL89DF1EZWl-5" edge="1">
          <mxGeometry width="50" height="50" relative="1" as="geometry">
            <mxPoint x="380" y="310" as="sourcePoint" />
            <mxPoint x="430" y="170" as="targetPoint" />
          </mxGeometry>
        </mxCell>
        <mxCell id="pT4zph-oLTL89DF1EZWl-11" value="" style="endArrow=classic;html=1;rounded=0;fontSize=13;exitX=0;exitY=0.5;exitDx=0;exitDy=0;entryX=1;entryY=1;entryDx=0;entryDy=0;fillColor=#dae8fc;strokeColor=#000000;" parent="1" source="pT4zph-oLTL89DF1EZWl-8" target="pT4zph-oLTL89DF1EZWl-5" edge="1">
          <mxGeometry width="50" height="50" relative="1" as="geometry">
            <mxPoint x="380" y="310" as="sourcePoint" />
            <mxPoint x="430" y="170" as="targetPoint" />
          </mxGeometry>
        </mxCell>
        <mxCell id="pT4zph-oLTL89DF1EZWl-12" value="&lt;span style=&quot;border-bottom: 1px dotted&quot;&gt;Postal code&lt;br&gt;&lt;/span&gt;" style="ellipse;whiteSpace=wrap;html=1;align=center;strokeColor=#6c8ebf;fontSize=14;fillColor=#dae8fc;" parent="1" vertex="1">
          <mxGeometry x="620" y="70" width="100" height="40" as="geometry" />
        </mxCell>
        <mxCell id="pT4zph-oLTL89DF1EZWl-13" value="" style="endArrow=classic;html=1;rounded=0;fontSize=15;exitX=0;exitY=0.5;exitDx=0;exitDy=0;fillColor=#dae8fc;strokeColor=#000000;entryX=0.984;entryY=0.332;entryDx=0;entryDy=0;entryPerimeter=0;" parent="1" source="pT4zph-oLTL89DF1EZWl-12" target="pT4zph-oLTL89DF1EZWl-5" edge="1">
          <mxGeometry width="50" height="50" relative="1" as="geometry">
            <mxPoint x="120" y="230" as="sourcePoint" />
            <mxPoint x="430" y="160" as="targetPoint" />
          </mxGeometry>
        </mxCell>
        <mxCell id="pT4zph-oLTL89DF1EZWl-14" value="&lt;span style=&quot;border-bottom: 1px dotted&quot;&gt;&lt;font&gt;Password&lt;/font&gt;&lt;br&gt;&lt;/span&gt;" style="ellipse;whiteSpace=wrap;html=1;align=center;strokeColor=#6c8ebf;fontSize=14;fillColor=#dae8fc;" parent="1" vertex="1">
          <mxGeometry x="170" y="278" width="100" height="40" as="geometry" />
        </mxCell>
        <mxCell id="pT4zph-oLTL89DF1EZWl-15" value="" style="endArrow=classic;html=1;rounded=0;fontSize=15;exitX=1;exitY=0.5;exitDx=0;exitDy=0;fillColor=#dae8fc;strokeColor=#000000;" parent="1" source="pT4zph-oLTL89DF1EZWl-14" edge="1">
          <mxGeometry width="50" height="50" relative="1" as="geometry">
            <mxPoint x="380" y="360.14" as="sourcePoint" />
            <mxPoint x="320" y="340.14" as="targetPoint" />
          </mxGeometry>
        </mxCell>
        <mxCell id="pT4zph-oLTL89DF1EZWl-16" value="&lt;span style=&quot;border-bottom: 1px dotted&quot;&gt;&lt;font&gt;Username&lt;/font&gt;&lt;br&gt;&lt;/span&gt;" style="ellipse;whiteSpace=wrap;html=1;align=center;strokeColor=#6c8ebf;fontSize=14;fillColor=#dae8fc;" parent="1" vertex="1">
          <mxGeometry x="170" y="238" width="100" height="40" as="geometry" />
        </mxCell>
        <mxCell id="pT4zph-oLTL89DF1EZWl-17" value="" style="endArrow=classic;html=1;rounded=0;exitX=1;exitY=0.5;exitDx=0;exitDy=0;fillColor=#dae8fc;strokeColor=#000000;" parent="1" source="pT4zph-oLTL89DF1EZWl-16" edge="1">
          <mxGeometry width="50" height="50" relative="1" as="geometry">
            <mxPoint x="330" y="400.14" as="sourcePoint" />
            <mxPoint x="330" y="330.14" as="targetPoint" />
          </mxGeometry>
        </mxCell>
        <mxCell id="pT4zph-oLTL89DF1EZWl-18" value="&lt;span style=&quot;border-bottom: 1px dotted&quot;&gt;&lt;font&gt;Firstname&lt;/font&gt;&lt;br&gt;&lt;/span&gt;" style="ellipse;whiteSpace=wrap;html=1;align=center;strokeColor=#6c8ebf;fontSize=14;fillColor=#dae8fc;" parent="1" vertex="1">
          <mxGeometry x="170" y="318" width="100" height="40" as="geometry" />
        </mxCell>
        <mxCell id="pT4zph-oLTL89DF1EZWl-19" value="&lt;span style=&quot;border-bottom: 1px dotted&quot;&gt;&lt;font&gt;Lastname&lt;/font&gt;&lt;br&gt;&lt;/span&gt;" style="ellipse;whiteSpace=wrap;html=1;align=center;strokeColor=#6c8ebf;fontSize=14;fillColor=#dae8fc;" parent="1" vertex="1">
          <mxGeometry x="170" y="358" width="100" height="40" as="geometry" />
        </mxCell>
        <mxCell id="pT4zph-oLTL89DF1EZWl-20" value="" style="endArrow=classic;html=1;rounded=0;entryX=0;entryY=0.25;entryDx=0;entryDy=0;fillColor=#dae8fc;strokeColor=#000000;" parent="1" target="pT4zph-oLTL89DF1EZWl-4" edge="1">
          <mxGeometry width="50" height="50" relative="1" as="geometry">
            <mxPoint x="253" y="338" as="sourcePoint" />
            <mxPoint x="303" y="288" as="targetPoint" />
            <Array as="points" />
          </mxGeometry>
        </mxCell>
        <mxCell id="pT4zph-oLTL89DF1EZWl-21" value="" style="endArrow=classic;html=1;rounded=0;exitX=1;exitY=0.5;exitDx=0;exitDy=0;entryX=0;entryY=0.5;entryDx=0;entryDy=0;fillColor=#dae8fc;strokeColor=#000000;" parent="1" source="pT4zph-oLTL89DF1EZWl-19" target="pT4zph-oLTL89DF1EZWl-4" edge="1">
          <mxGeometry width="50" height="50" relative="1" as="geometry">
            <mxPoint x="313" y="318" as="sourcePoint" />
            <mxPoint x="320" y="292" as="targetPoint" />
          </mxGeometry>
        </mxCell>
        <mxCell id="pT4zph-oLTL89DF1EZWl-22" value="&lt;span style=&quot;border-bottom: 1px dotted&quot;&gt;&lt;font&gt;Phone&lt;/font&gt;&lt;br&gt;&lt;/span&gt;" style="ellipse;whiteSpace=wrap;html=1;align=center;strokeColor=#6c8ebf;fontSize=14;fillColor=#dae8fc;" parent="1" vertex="1">
          <mxGeometry x="170" y="398" width="100" height="40" as="geometry" />
        </mxCell>
        <mxCell id="pT4zph-oLTL89DF1EZWl-23" value="" style="endArrow=classic;html=1;rounded=0;exitX=1;exitY=0.5;exitDx=0;exitDy=0;entryX=0;entryY=0.75;entryDx=0;entryDy=0;fillColor=#dae8fc;strokeColor=#000000;" parent="1" source="pT4zph-oLTL89DF1EZWl-22" target="pT4zph-oLTL89DF1EZWl-4" edge="1">
          <mxGeometry width="50" height="50" relative="1" as="geometry">
            <mxPoint x="330" y="440.14" as="sourcePoint" />
            <mxPoint x="320" y="400.14" as="targetPoint" />
          </mxGeometry>
        </mxCell>
        <mxCell id="pT4zph-oLTL89DF1EZWl-26" value="&lt;span style=&quot;border-bottom: 1px dotted&quot;&gt;&lt;font&gt;Email&lt;/font&gt;&lt;br&gt;&lt;/span&gt;" style="ellipse;whiteSpace=wrap;html=1;align=center;strokeColor=#6c8ebf;fontSize=14;fillColor=#dae8fc;" parent="1" vertex="1">
          <mxGeometry x="170" y="438" width="100" height="40" as="geometry" />
        </mxCell>
        <mxCell id="pT4zph-oLTL89DF1EZWl-27" value="" style="endArrow=classic;html=1;rounded=0;fontSize=15;exitX=1;exitY=0.5;exitDx=0;exitDy=0;entryX=0.083;entryY=0.967;entryDx=0;entryDy=0;entryPerimeter=0;fillColor=#dae8fc;strokeColor=#000000;" parent="1" source="pT4zph-oLTL89DF1EZWl-26" target="pT4zph-oLTL89DF1EZWl-4" edge="1">
          <mxGeometry width="50" height="50" relative="1" as="geometry">
            <mxPoint x="270" y="520.14" as="sourcePoint" />
            <mxPoint x="320" y="470.14" as="targetPoint" />
          </mxGeometry>
        </mxCell>
        <mxCell id="pT4zph-oLTL89DF1EZWl-28" value="" style="endArrow=classic;startArrow=classic;html=1;rounded=0;entryX=0.5;entryY=1;entryDx=0;entryDy=0;exitX=0.5;exitY=0;exitDx=0;exitDy=0;" parent="1" source="pT4zph-oLTL89DF1EZWl-29" target="pT4zph-oLTL89DF1EZWl-5" edge="1">
          <mxGeometry width="50" height="50" relative="1" as="geometry">
            <mxPoint x="380" y="170" as="sourcePoint" />
            <mxPoint x="379.5" y="120" as="targetPoint" />
            <Array as="points" />
          </mxGeometry>
        </mxCell>
        <mxCell id="pT4zph-oLTL89DF1EZWl-29" value="Has" style="rhombus;whiteSpace=wrap;html=1;strokeColor=#666666;fontSize=15;fillColor=#f5f5f5;gradientColor=#b3b3b3;" parent="1" vertex="1">
          <mxGeometry x="350" y="200" width="60" height="60" as="geometry" />
        </mxCell>
        <mxCell id="pT4zph-oLTL89DF1EZWl-30" value="" style="endArrow=classic;html=1;rounded=0;fontSize=15;exitX=0.5;exitY=0;exitDx=0;exitDy=0;entryX=0.5;entryY=1;entryDx=0;entryDy=0;" parent="1" source="pT4zph-oLTL89DF1EZWl-4" target="pT4zph-oLTL89DF1EZWl-29" edge="1">
          <mxGeometry width="50" height="50" relative="1" as="geometry">
            <mxPoint x="386" y="363" as="sourcePoint" />
            <mxPoint x="380" y="290" as="targetPoint" />
          </mxGeometry>
        </mxCell>
        <mxCell id="pT4zph-oLTL89DF1EZWl-31" value="Has" style="rhombus;whiteSpace=wrap;html=1;strokeColor=#666666;fontSize=15;fillColor=#f5f5f5;gradientColor=#b3b3b3;" parent="1" vertex="1">
          <mxGeometry x="350" y="448" width="60" height="60" as="geometry" />
        </mxCell>
        <mxCell id="pT4zph-oLTL89DF1EZWl-32" value="" style="endArrow=classic;html=1;rounded=0;fontSize=15;exitX=0.5;exitY=1;exitDx=0;exitDy=0;entryX=0.5;entryY=0;entryDx=0;entryDy=0;" parent="1" source="pT4zph-oLTL89DF1EZWl-4" target="pT4zph-oLTL89DF1EZWl-31" edge="1">
          <mxGeometry width="50" height="50" relative="1" as="geometry">
            <mxPoint x="360" y="408" as="sourcePoint" />
            <mxPoint x="380" y="438" as="targetPoint" />
          </mxGeometry>
        </mxCell>
        <mxCell id="pT4zph-oLTL89DF1EZWl-33" value="" style="endArrow=classic;startArrow=classic;html=1;rounded=0;fontSize=15;exitX=0.5;exitY=1;exitDx=0;exitDy=0;" parent="1" source="pT4zph-oLTL89DF1EZWl-31" edge="1">
          <mxGeometry width="50" height="50" relative="1" as="geometry">
            <mxPoint x="340" y="548" as="sourcePoint" />
            <mxPoint x="380" y="588" as="targetPoint" />
          </mxGeometry>
        </mxCell>
        <mxCell id="pT4zph-oLTL89DF1EZWl-35" value="&lt;font style=&quot;font-size: 14px;&quot;&gt;ShoppingCart&lt;/font&gt;" style="shape=ext;margin=3;double=1;whiteSpace=wrap;html=1;align=center;strokeColor=#82b366;fontSize=15;fillColor=#d5e8d4;" parent="1" vertex="1">
          <mxGeometry x="340" y="588" width="100" height="40" as="geometry" />
        </mxCell>
        <mxCell id="pT4zph-oLTL89DF1EZWl-36" value="&lt;span style=&quot;border-bottom: 1px dotted&quot;&gt;&lt;span&gt;ShoppingCartID&lt;/span&gt;&lt;br&gt;&lt;/span&gt;" style="ellipse;whiteSpace=wrap;html=1;align=center;strokeColor=#6c8ebf;fontSize=14;fillColor=#dae8fc;" parent="1" vertex="1">
          <mxGeometry x="170" y="698" width="100" height="40" as="geometry" />
        </mxCell>
        <mxCell id="pT4zph-oLTL89DF1EZWl-37" value="&lt;span style=&quot;border-bottom: 1px dotted&quot;&gt;&lt;span&gt;ProductID&lt;/span&gt;&lt;br&gt;&lt;/span&gt;" style="ellipse;whiteSpace=wrap;html=1;align=center;strokeColor=#6c8ebf;fontSize=14;fillColor=#dae8fc;" parent="1" vertex="1">
          <mxGeometry x="240" y="728" width="100" height="40" as="geometry" />
        </mxCell>
        <mxCell id="pT4zph-oLTL89DF1EZWl-38" value="&lt;span style=&quot;border-bottom: 1px dotted&quot;&gt;&lt;font&gt;Quantity&lt;/font&gt;&lt;br&gt;&lt;/span&gt;" style="ellipse;html=1;align=center;strokeColor=#6c8ebf;fontSize=14;fillColor=#dae8fc;whiteSpace=wrap;fontStyle=0" parent="1" vertex="1">
          <mxGeometry x="420" y="698" width="100" height="40" as="geometry" />
        </mxCell>
        <mxCell id="pT4zph-oLTL89DF1EZWl-39" value="&lt;span style=&quot;border-bottom: 1px dotted&quot;&gt;&lt;font&gt;Creation date&lt;/font&gt;&lt;br&gt;&lt;/span&gt;" style="ellipse;whiteSpace=wrap;html=1;align=center;strokeColor=#6c8ebf;fontSize=14;fillColor=#dae8fc;" parent="1" vertex="1">
          <mxGeometry x="350" y="728" width="100" height="40" as="geometry" />
        </mxCell>
        <mxCell id="pT4zph-oLTL89DF1EZWl-40" value="" style="endArrow=classic;html=1;rounded=0;fontSize=15;exitX=0.5;exitY=0;exitDx=0;exitDy=0;entryX=0;entryY=1;entryDx=0;entryDy=0;" parent="1" source="pT4zph-oLTL89DF1EZWl-36" target="pT4zph-oLTL89DF1EZWl-35" edge="1">
          <mxGeometry width="50" height="50" relative="1" as="geometry">
            <mxPoint x="230" y="508" as="sourcePoint" />
            <mxPoint x="280" y="458" as="targetPoint" />
          </mxGeometry>
        </mxCell>
        <mxCell id="pT4zph-oLTL89DF1EZWl-41" value="" style="endArrow=classic;html=1;rounded=0;fontSize=15;exitX=0.36;exitY=0.035;exitDx=0;exitDy=0;entryX=0.322;entryY=1.023;entryDx=0;entryDy=0;exitPerimeter=0;entryPerimeter=0;" parent="1" source="pT4zph-oLTL89DF1EZWl-37" target="pT4zph-oLTL89DF1EZWl-35" edge="1">
          <mxGeometry width="50" height="50" relative="1" as="geometry">
            <mxPoint x="230" y="508" as="sourcePoint" />
            <mxPoint x="280" y="458" as="targetPoint" />
          </mxGeometry>
        </mxCell>
        <mxCell id="pT4zph-oLTL89DF1EZWl-42" value="" style="endArrow=classic;html=1;rounded=0;fontSize=15;exitX=0.232;exitY=0.058;exitDx=0;exitDy=0;entryX=1;entryY=1;entryDx=0;entryDy=0;exitPerimeter=0;" parent="1" source="pT4zph-oLTL89DF1EZWl-38" target="pT4zph-oLTL89DF1EZWl-35" edge="1">
          <mxGeometry width="50" height="50" relative="1" as="geometry">
            <mxPoint x="230" y="508" as="sourcePoint" />
            <mxPoint x="440" y="618" as="targetPoint" />
          </mxGeometry>
        </mxCell>
        <mxCell id="pT4zph-oLTL89DF1EZWl-43" value="" style="endArrow=classic;html=1;rounded=0;fontSize=15;exitX=0.256;exitY=0.13;exitDx=0;exitDy=0;entryX=0.599;entryY=1.046;entryDx=0;entryDy=0;entryPerimeter=0;exitPerimeter=0;" parent="1" source="pT4zph-oLTL89DF1EZWl-39" target="pT4zph-oLTL89DF1EZWl-35" edge="1">
          <mxGeometry width="50" height="50" relative="1" as="geometry">
            <mxPoint x="230" y="508" as="sourcePoint" />
            <mxPoint x="280" y="458" as="targetPoint" />
          </mxGeometry>
        </mxCell>
        <mxCell id="pT4zph-oLTL89DF1EZWl-44" value="Has" style="rhombus;whiteSpace=wrap;html=1;strokeColor=#666666;fontSize=15;fillColor=#f5f5f5;gradientColor=#b3b3b3;" parent="1" vertex="1">
          <mxGeometry x="530" y="328" width="60" height="60" as="geometry" />
        </mxCell>
        <mxCell id="pT4zph-oLTL89DF1EZWl-45" value="" style="endArrow=classic;html=1;rounded=0;fontSize=15;entryX=0;entryY=0.5;entryDx=0;entryDy=0;" parent="1" target="pT4zph-oLTL89DF1EZWl-44" edge="1">
          <mxGeometry width="50" height="50" relative="1" as="geometry">
            <mxPoint x="440" y="358" as="sourcePoint" />
            <mxPoint x="430" y="248" as="targetPoint" />
          </mxGeometry>
        </mxCell>
        <mxCell id="pT4zph-oLTL89DF1EZWl-46" value="" style="endArrow=classic;startArrow=classic;html=1;rounded=0;fontSize=15;exitX=1;exitY=0.5;exitDx=0;exitDy=0;entryX=0;entryY=0.5;entryDx=0;entryDy=0;" parent="1" source="pT4zph-oLTL89DF1EZWl-44" target="pT4zph-oLTL89DF1EZWl-58" edge="1">
          <mxGeometry width="50" height="50" relative="1" as="geometry">
            <mxPoint x="380" y="298" as="sourcePoint" />
            <mxPoint x="670" y="358" as="targetPoint" />
          </mxGeometry>
        </mxCell>
        <mxCell id="pT4zph-oLTL89DF1EZWl-47" value="&lt;font&gt;Product&lt;/font&gt;" style="rounded=0;whiteSpace=wrap;html=1;strokeColor=#82b366;fontSize=15;fillColor=#d5e8d4;" parent="1" vertex="1">
          <mxGeometry x="700" y="792" width="100" height="40" as="geometry" />
        </mxCell>
        <mxCell id="pT4zph-oLTL89DF1EZWl-48" value="&lt;font&gt;ProductID&lt;/font&gt;" style="ellipse;whiteSpace=wrap;html=1;align=center;strokeColor=#6c8ebf;fontSize=14;fillColor=#dae8fc;" parent="1" vertex="1">
          <mxGeometry x="900" y="725" width="100" height="40" as="geometry" />
        </mxCell>
        <mxCell id="pT4zph-oLTL89DF1EZWl-49" value="&lt;font&gt;Name&lt;/font&gt;" style="ellipse;whiteSpace=wrap;html=1;align=center;strokeColor=#6c8ebf;fontSize=14;fillColor=#dae8fc;" parent="1" vertex="1">
          <mxGeometry x="910" y="775" width="100" height="40" as="geometry" />
        </mxCell>
        <mxCell id="pT4zph-oLTL89DF1EZWl-50" value="&lt;font&gt;Quantity&lt;/font&gt;" style="ellipse;whiteSpace=wrap;html=1;align=center;strokeColor=#6c8ebf;fontSize=14;fillColor=#dae8fc;" parent="1" vertex="1">
          <mxGeometry x="910" y="825" width="100" height="40" as="geometry" />
        </mxCell>
        <mxCell id="pT4zph-oLTL89DF1EZWl-51" value="&lt;font&gt;Price&lt;/font&gt;" style="ellipse;whiteSpace=wrap;html=1;align=center;strokeColor=#6c8ebf;fontSize=14;fillColor=#dae8fc;" parent="1" vertex="1">
          <mxGeometry x="910" y="875" width="100" height="40" as="geometry" />
        </mxCell>
        <mxCell id="pT4zph-oLTL89DF1EZWl-52" style="edgeStyle=orthogonalEdgeStyle;rounded=0;orthogonalLoop=1;jettySize=auto;html=1;exitX=0.5;exitY=1;exitDx=0;exitDy=0;fontSize=14;fillColor=#dae8fc;strokeColor=#6c8ebf;" parent="1" source="pT4zph-oLTL89DF1EZWl-51" target="pT4zph-oLTL89DF1EZWl-51" edge="1">
          <mxGeometry relative="1" as="geometry" />
        </mxCell>
        <mxCell id="pT4zph-oLTL89DF1EZWl-53" value="" style="endArrow=classic;html=1;rounded=0;fontSize=14;exitX=0.11;exitY=0.9;exitDx=0;exitDy=0;entryX=1;entryY=0;entryDx=0;entryDy=0;exitPerimeter=0;fillColor=#dae8fc;strokeColor=#000000;" parent="1" source="pT4zph-oLTL89DF1EZWl-48" target="pT4zph-oLTL89DF1EZWl-47" edge="1">
          <mxGeometry width="50" height="50" relative="1" as="geometry">
            <mxPoint x="886.4000000000001" y="757" as="sourcePoint" />
            <mxPoint x="1040" y="925.71" as="targetPoint" />
          </mxGeometry>
        </mxCell>
        <mxCell id="pT4zph-oLTL89DF1EZWl-54" value="" style="endArrow=classic;html=1;rounded=0;fontSize=14;exitX=0;exitY=0.5;exitDx=0;exitDy=0;entryX=1;entryY=0.25;entryDx=0;entryDy=0;fillColor=#dae8fc;strokeColor=#000000;" parent="1" source="pT4zph-oLTL89DF1EZWl-49" target="pT4zph-oLTL89DF1EZWl-47" edge="1">
          <mxGeometry width="50" height="50" relative="1" as="geometry">
            <mxPoint x="990" y="975.71" as="sourcePoint" />
            <mxPoint x="1040" y="925.71" as="targetPoint" />
          </mxGeometry>
        </mxCell>
        <mxCell id="pT4zph-oLTL89DF1EZWl-55" value="" style="endArrow=classic;html=1;rounded=0;fontSize=14;exitX=0;exitY=0.5;exitDx=0;exitDy=0;entryX=1;entryY=0.75;entryDx=0;entryDy=0;fillColor=#dae8fc;strokeColor=#000000;" parent="1" source="pT4zph-oLTL89DF1EZWl-50" target="pT4zph-oLTL89DF1EZWl-47" edge="1">
          <mxGeometry width="50" height="50" relative="1" as="geometry">
            <mxPoint x="990" y="975.71" as="sourcePoint" />
            <mxPoint x="1040" y="925.71" as="targetPoint" />
          </mxGeometry>
        </mxCell>
        <mxCell id="pT4zph-oLTL89DF1EZWl-56" value="" style="endArrow=classic;html=1;rounded=0;fontSize=14;exitX=0.021;exitY=0.279;exitDx=0;exitDy=0;entryX=1;entryY=1;entryDx=0;entryDy=0;exitPerimeter=0;fillColor=#dae8fc;strokeColor=#000000;" parent="1" source="pT4zph-oLTL89DF1EZWl-51" target="pT4zph-oLTL89DF1EZWl-47" edge="1">
          <mxGeometry width="50" height="50" relative="1" as="geometry">
            <mxPoint x="990" y="975.71" as="sourcePoint" />
            <mxPoint x="1040" y="925.71" as="targetPoint" />
            <Array as="points" />
          </mxGeometry>
        </mxCell>
        <mxCell id="pT4zph-oLTL89DF1EZWl-57" value="" style="endArrow=classic;html=1;rounded=0;fontSize=15;exitX=0.5;exitY=1;exitDx=0;exitDy=0;entryX=0.5;entryY=0;entryDx=0;entryDy=0;" parent="1" source="pT4zph-oLTL89DF1EZWl-47" edge="1" target="3i_mqRXhh7hjjyPGOA94-12">
          <mxGeometry width="50" height="50" relative="1" as="geometry">
            <mxPoint x="1020" y="965.71" as="sourcePoint" />
            <mxPoint x="760" y="885" as="targetPoint" />
          </mxGeometry>
        </mxCell>
        <mxCell id="pT4zph-oLTL89DF1EZWl-58" value="Order" style="shape=ext;margin=3;double=1;whiteSpace=wrap;html=1;align=center;strokeColor=#82b366;fontSize=15;fillColor=#d5e8d4;" parent="1" vertex="1">
          <mxGeometry x="700" y="340" width="100" height="40" as="geometry" />
        </mxCell>
        <mxCell id="pT4zph-oLTL89DF1EZWl-61" value="&lt;font&gt;OrderDate&lt;/font&gt;" style="ellipse;whiteSpace=wrap;html=1;align=center;strokeColor=#6c8ebf;fontSize=14;fillColor=#dae8fc;" parent="1" vertex="1">
          <mxGeometry x="890" y="270" width="100" height="40" as="geometry" />
        </mxCell>
        <mxCell id="pT4zph-oLTL89DF1EZWl-62" value="&lt;font&gt;Status&lt;/font&gt;" style="ellipse;whiteSpace=wrap;html=1;align=center;strokeColor=#6c8ebf;fontSize=14;fillColor=#dae8fc;" parent="1" vertex="1">
          <mxGeometry x="890" y="230" width="100" height="40" as="geometry" />
        </mxCell>
        <mxCell id="pT4zph-oLTL89DF1EZWl-63" value="&lt;font&gt;Payment method&lt;/font&gt;" style="ellipse;whiteSpace=wrap;html=1;align=center;strokeColor=#6c8ebf;fontSize=14;fillColor=#dae8fc;" parent="1" vertex="1">
          <mxGeometry x="890" y="350" width="100" height="40" as="geometry" />
        </mxCell>
        <mxCell id="pT4zph-oLTL89DF1EZWl-64" value="&lt;span&gt;Total&lt;/span&gt;" style="ellipse;whiteSpace=wrap;html=1;align=center;strokeColor=#6c8ebf;fontSize=14;fillColor=#dae8fc;" parent="1" vertex="1">
          <mxGeometry x="890" y="310" width="100" height="40" as="geometry" />
        </mxCell>
        <mxCell id="pT4zph-oLTL89DF1EZWl-65" value="&lt;span&gt;Tracking n&lt;/span&gt;&lt;span style=&quot;background-color: initial;&quot;&gt;umber&lt;/span&gt;" style="ellipse;whiteSpace=wrap;html=1;align=center;strokeColor=#6c8ebf;fontSize=14;fillColor=#dae8fc;" parent="1" vertex="1">
          <mxGeometry x="890" y="390" width="100" height="40" as="geometry" />
        </mxCell>
        <mxCell id="pT4zph-oLTL89DF1EZWl-66" value="&lt;span&gt;Discount&lt;/span&gt;" style="ellipse;whiteSpace=wrap;html=1;align=center;strokeColor=#6c8ebf;fontSize=14;fillColor=#dae8fc;" parent="1" vertex="1">
          <mxGeometry x="890" y="430" width="100" height="40" as="geometry" />
        </mxCell>
        <mxCell id="pT4zph-oLTL89DF1EZWl-67" value="" style="endArrow=classic;html=1;rounded=0;fontSize=15;exitX=0;exitY=0.5;exitDx=0;exitDy=0;fillColor=#dae8fc;strokeColor=#000000;" parent="1" source="pT4zph-oLTL89DF1EZWl-61" edge="1">
          <mxGeometry width="50" height="50" relative="1" as="geometry">
            <mxPoint x="790" y="370" as="sourcePoint" />
            <mxPoint x="801" y="345" as="targetPoint" />
          </mxGeometry>
        </mxCell>
        <mxCell id="pT4zph-oLTL89DF1EZWl-68" value="" style="endArrow=classic;html=1;rounded=0;fontSize=15;exitX=0;exitY=0.5;exitDx=0;exitDy=0;entryX=1;entryY=0;entryDx=0;entryDy=0;fillColor=#dae8fc;strokeColor=#000000;" parent="1" source="pT4zph-oLTL89DF1EZWl-62" target="pT4zph-oLTL89DF1EZWl-58" edge="1">
          <mxGeometry width="50" height="50" relative="1" as="geometry">
            <mxPoint x="790" y="370" as="sourcePoint" />
            <mxPoint x="840" y="320" as="targetPoint" />
          </mxGeometry>
        </mxCell>
        <mxCell id="pT4zph-oLTL89DF1EZWl-69" value="" style="endArrow=classic;html=1;rounded=0;fontSize=15;exitX=0;exitY=0.5;exitDx=0;exitDy=0;fillColor=#dae8fc;strokeColor=#000000;" parent="1" source="pT4zph-oLTL89DF1EZWl-63" edge="1">
          <mxGeometry width="50" height="50" relative="1" as="geometry">
            <mxPoint x="790" y="370" as="sourcePoint" />
            <mxPoint x="801" y="355" as="targetPoint" />
          </mxGeometry>
        </mxCell>
        <mxCell id="pT4zph-oLTL89DF1EZWl-70" value="" style="endArrow=classic;html=1;rounded=0;fontSize=15;exitX=-0.008;exitY=0.416;exitDx=0;exitDy=0;exitPerimeter=0;entryX=1;entryY=0.25;entryDx=0;entryDy=0;fillColor=#dae8fc;strokeColor=#000000;" parent="1" source="pT4zph-oLTL89DF1EZWl-64" target="pT4zph-oLTL89DF1EZWl-58" edge="1">
          <mxGeometry width="50" height="50" relative="1" as="geometry">
            <mxPoint x="790" y="370" as="sourcePoint" />
            <mxPoint x="840" y="320" as="targetPoint" />
          </mxGeometry>
        </mxCell>
        <mxCell id="pT4zph-oLTL89DF1EZWl-71" value="" style="endArrow=classic;html=1;rounded=0;fontSize=15;exitX=0;exitY=0.5;exitDx=0;exitDy=0;fillColor=#dae8fc;strokeColor=#000000;" parent="1" source="pT4zph-oLTL89DF1EZWl-65" edge="1">
          <mxGeometry width="50" height="50" relative="1" as="geometry">
            <mxPoint x="790" y="370" as="sourcePoint" />
            <mxPoint x="800" y="360" as="targetPoint" />
          </mxGeometry>
        </mxCell>
        <mxCell id="pT4zph-oLTL89DF1EZWl-72" value="" style="endArrow=classic;html=1;rounded=0;fontSize=15;exitX=0;exitY=0.5;exitDx=0;exitDy=0;entryX=1;entryY=0.75;entryDx=0;entryDy=0;fillColor=#dae8fc;strokeColor=#000000;" parent="1" source="pT4zph-oLTL89DF1EZWl-66" target="pT4zph-oLTL89DF1EZWl-58" edge="1">
          <mxGeometry width="50" height="50" relative="1" as="geometry">
            <mxPoint x="790" y="370" as="sourcePoint" />
            <mxPoint x="840" y="320" as="targetPoint" />
          </mxGeometry>
        </mxCell>
        <mxCell id="3i_mqRXhh7hjjyPGOA94-1" value="&lt;font&gt;Has&lt;/font&gt;" style="rhombus;whiteSpace=wrap;html=1;strokeColor=#666666;fontSize=15;fillColor=#f5f5f5;gradientColor=#b3b3b3;" vertex="1" parent="1">
          <mxGeometry x="720" y="465" width="60" height="60" as="geometry" />
        </mxCell>
        <mxCell id="3i_mqRXhh7hjjyPGOA94-2" value="" style="endArrow=classic;html=1;rounded=0;fontSize=14;exitX=0.5;exitY=0.95;exitDx=0;exitDy=0;entryX=0.5;entryY=0;entryDx=0;entryDy=0;exitPerimeter=0;" edge="1" parent="1" source="3i_mqRXhh7hjjyPGOA94-42" target="pT4zph-oLTL89DF1EZWl-47">
          <mxGeometry width="50" height="50" relative="1" as="geometry">
            <mxPoint x="740" y="738" as="sourcePoint" />
            <mxPoint x="730" y="855" as="targetPoint" />
          </mxGeometry>
        </mxCell>
        <mxCell id="3i_mqRXhh7hjjyPGOA94-3" value="" style="endArrow=classic;html=1;rounded=0;fontSize=15;exitX=0.5;exitY=1;exitDx=0;exitDy=0;" edge="1" parent="1" target="3i_mqRXhh7hjjyPGOA94-1" source="pT4zph-oLTL89DF1EZWl-58">
          <mxGeometry width="50" height="50" relative="1" as="geometry">
            <mxPoint x="870" y="525" as="sourcePoint" />
            <mxPoint x="770" y="565" as="targetPoint" />
          </mxGeometry>
        </mxCell>
        <mxCell id="3i_mqRXhh7hjjyPGOA94-5" style="edgeStyle=orthogonalEdgeStyle;rounded=0;orthogonalLoop=1;jettySize=auto;html=1;exitX=0.5;exitY=1;exitDx=0;exitDy=0;fontSize=14;" edge="1" parent="1">
          <mxGeometry relative="1" as="geometry">
            <mxPoint x="580" y="818" as="sourcePoint" />
            <mxPoint x="580" y="818" as="targetPoint" />
          </mxGeometry>
        </mxCell>
        <mxCell id="3i_mqRXhh7hjjyPGOA94-6" value="&lt;font&gt;CategoryID&lt;/font&gt;" style="ellipse;whiteSpace=wrap;html=1;align=center;strokeColor=#6c8ebf;fontSize=14;fillColor=#dae8fc;" vertex="1" parent="1">
          <mxGeometry x="570" y="995" width="100" height="40" as="geometry" />
        </mxCell>
        <mxCell id="3i_mqRXhh7hjjyPGOA94-7" value="&lt;font&gt;Name&lt;/font&gt;" style="ellipse;whiteSpace=wrap;html=1;align=center;strokeColor=#6c8ebf;fontSize=14;fillColor=#dae8fc;" vertex="1" parent="1">
          <mxGeometry x="690" y="995" width="100" height="40" as="geometry" />
        </mxCell>
        <mxCell id="3i_mqRXhh7hjjyPGOA94-8" value="&lt;font&gt;Details&lt;/font&gt;" style="ellipse;whiteSpace=wrap;html=1;align=center;strokeColor=#6c8ebf;fontSize=14;fillColor=#dae8fc;" vertex="1" parent="1">
          <mxGeometry x="800" y="995" width="100" height="40" as="geometry" />
        </mxCell>
        <mxCell id="3i_mqRXhh7hjjyPGOA94-9" value="" style="endArrow=classic;html=1;rounded=0;fontSize=15;exitX=0.5;exitY=0;exitDx=0;exitDy=0;entryX=0;entryY=1;entryDx=0;entryDy=0;" edge="1" parent="1" target="3i_mqRXhh7hjjyPGOA94-12">
          <mxGeometry width="50" height="50" relative="1" as="geometry">
            <mxPoint x="630" y="995" as="sourcePoint" />
            <mxPoint x="765" y="956" as="targetPoint" />
          </mxGeometry>
        </mxCell>
        <mxCell id="3i_mqRXhh7hjjyPGOA94-10" value="" style="endArrow=classic;html=1;rounded=0;fontSize=15;entryX=0.5;entryY=1;entryDx=0;entryDy=0;exitX=0.5;exitY=0;exitDx=0;exitDy=0;" edge="1" parent="1" source="3i_mqRXhh7hjjyPGOA94-7" target="3i_mqRXhh7hjjyPGOA94-12">
          <mxGeometry width="50" height="50" relative="1" as="geometry">
            <mxPoint x="740" y="996" as="sourcePoint" />
            <mxPoint x="740" y="956" as="targetPoint" />
          </mxGeometry>
        </mxCell>
        <mxCell id="3i_mqRXhh7hjjyPGOA94-11" value="" style="endArrow=classic;html=1;rounded=0;fontSize=15;exitX=0.5;exitY=0;exitDx=0;exitDy=0;entryX=1;entryY=1;entryDx=0;entryDy=0;" edge="1" parent="1" source="3i_mqRXhh7hjjyPGOA94-8" target="3i_mqRXhh7hjjyPGOA94-12">
          <mxGeometry width="50" height="50" relative="1" as="geometry">
            <mxPoint x="850" y="916" as="sourcePoint" />
            <mxPoint x="860" y="945" as="targetPoint" />
          </mxGeometry>
        </mxCell>
        <mxCell id="3i_mqRXhh7hjjyPGOA94-12" value="&lt;font&gt;Category&lt;/font&gt;" style="shape=ext;margin=3;double=1;whiteSpace=wrap;html=1;align=center;strokeColor=#82b366;fontSize=15;fillColor=#d5e8d4;" vertex="1" parent="1">
          <mxGeometry x="700" y="895" width="100" height="40" as="geometry" />
        </mxCell>
        <mxCell id="3i_mqRXhh7hjjyPGOA94-34" value="&lt;font&gt;OrderID&lt;/font&gt;" style="ellipse;whiteSpace=wrap;html=1;align=center;strokeColor=#6c8ebf;fontSize=14;fillColor=#dae8fc;" vertex="1" parent="1">
          <mxGeometry x="950" y="525" width="100" height="40" as="geometry" />
        </mxCell>
        <mxCell id="3i_mqRXhh7hjjyPGOA94-35" value="&lt;span&gt;Price&lt;/span&gt;" style="ellipse;whiteSpace=wrap;html=1;align=center;strokeColor=#6c8ebf;fontSize=14;fillColor=#dae8fc;" vertex="1" parent="1">
          <mxGeometry x="950" y="575" width="100" height="40" as="geometry" />
        </mxCell>
        <mxCell id="3i_mqRXhh7hjjyPGOA94-36" value="&lt;span&gt;Shipping d&lt;/span&gt;&lt;span style=&quot;background-color: initial;&quot;&gt;ate&lt;/span&gt;" style="ellipse;whiteSpace=wrap;html=1;align=center;strokeColor=#6c8ebf;fontSize=14;fillColor=#dae8fc;" vertex="1" parent="1">
          <mxGeometry x="950" y="625" width="100" height="40" as="geometry" />
        </mxCell>
        <mxCell id="3i_mqRXhh7hjjyPGOA94-37" value="" style="endArrow=classic;html=1;rounded=0;fontSize=15;entryX=0;entryY=0.5;entryDx=0;entryDy=0;exitX=1.005;exitY=0.044;exitDx=0;exitDy=0;exitPerimeter=0;" edge="1" parent="1" source="3i_mqRXhh7hjjyPGOA94-41" target="3i_mqRXhh7hjjyPGOA94-34">
          <mxGeometry width="50" height="50" relative="1" as="geometry">
            <mxPoint x="802.7999999999997" y="585.3999999999999" as="sourcePoint" />
            <mxPoint x="842" y="579.3399999999999" as="targetPoint" />
          </mxGeometry>
        </mxCell>
        <mxCell id="3i_mqRXhh7hjjyPGOA94-38" value="" style="endArrow=classic;html=1;rounded=0;fontSize=15;entryX=0;entryY=0.5;entryDx=0;entryDy=0;exitX=1;exitY=0.5;exitDx=0;exitDy=0;" edge="1" parent="1" source="3i_mqRXhh7hjjyPGOA94-41" target="3i_mqRXhh7hjjyPGOA94-35">
          <mxGeometry width="50" height="50" relative="1" as="geometry">
            <mxPoint x="799.9999999999998" y="605" as="sourcePoint" />
            <mxPoint x="840" y="420.5" as="targetPoint" />
          </mxGeometry>
        </mxCell>
        <mxCell id="3i_mqRXhh7hjjyPGOA94-39" value="" style="endArrow=classic;html=1;rounded=0;fontSize=15;exitX=1;exitY=1;exitDx=0;exitDy=0;" edge="1" parent="1" source="3i_mqRXhh7hjjyPGOA94-41" target="3i_mqRXhh7hjjyPGOA94-36">
          <mxGeometry width="50" height="50" relative="1" as="geometry">
            <mxPoint x="799.9999999999998" y="625" as="sourcePoint" />
            <mxPoint x="1020" y="580.5" as="targetPoint" />
          </mxGeometry>
        </mxCell>
        <mxCell id="3i_mqRXhh7hjjyPGOA94-41" value="&lt;font style=&quot;font-size: 15px;&quot;&gt;OrderInfo&lt;/font&gt;" style="shape=associativeEntity;whiteSpace=wrap;html=1;align=center;fillColor=#d5e8d4;strokeColor=#82b366;" vertex="1" parent="1">
          <mxGeometry x="690" y="578" width="120" height="50" as="geometry" />
        </mxCell>
        <mxCell id="3i_mqRXhh7hjjyPGOA94-42" value="&lt;font style=&quot;font-size: 14px;&quot;&gt;Includes&lt;/font&gt;" style="rhombus;whiteSpace=wrap;html=1;strokeColor=#666666;fontSize=15;fillColor=#f5f5f5;gradientColor=#b3b3b3;" vertex="1" parent="1">
          <mxGeometry x="720" y="678" width="60" height="60" as="geometry" />
        </mxCell>
        <mxCell id="3i_mqRXhh7hjjyPGOA94-43" value="" style="endArrow=classic;html=1;rounded=0;fontSize=15;exitX=0.5;exitY=1;exitDx=0;exitDy=0;entryX=0.5;entryY=0;entryDx=0;entryDy=0;" edge="1" parent="1" source="3i_mqRXhh7hjjyPGOA94-1" target="3i_mqRXhh7hjjyPGOA94-41">
          <mxGeometry width="50" height="50" relative="1" as="geometry">
            <mxPoint x="820" y="470" as="sourcePoint" />
            <mxPoint x="820" y="555" as="targetPoint" />
          </mxGeometry>
        </mxCell>
        <mxCell id="3i_mqRXhh7hjjyPGOA94-44" value="" style="endArrow=classic;html=1;rounded=0;fontSize=15;exitX=0.5;exitY=1;exitDx=0;exitDy=0;entryX=0.512;entryY=0.064;entryDx=0;entryDy=0;entryPerimeter=0;" edge="1" parent="1" source="3i_mqRXhh7hjjyPGOA94-41" target="3i_mqRXhh7hjjyPGOA94-42">
          <mxGeometry width="50" height="50" relative="1" as="geometry">
            <mxPoint x="780" y="628" as="sourcePoint" />
            <mxPoint x="780" y="713" as="targetPoint" />
          </mxGeometry>
        </mxCell>
      </root>
    </mxGraphModel>
  </diagram>
</mxfile>
